PathFileType	4	(X/Y/Z)	D:\telocate\uwb04-Unnamed.trc
DataRate	CameraRate	NumFrames	NumMarkers	Units	OrigDataRate	OrigDataStartFrame	OrigNumFrames
100.00	100.00	     106	0	mm	100.00	6261	     10016
Frame#	Time	
		

6261	62.600	1216.40356	-1582.27576	1182.20325	
6262	62.610	1219.10352	-1580.17749	1181.93604	
6263	62.620	1221.18042	-1578.37549	1181.81201	
6264	62.630	1223.95850	-1576.07690	1181.50537	
6265	62.640	1226.51807	-1573.91260	1180.55481	
6266	62.650	1230.67200	-1571.32080	1180.34216	
6267	62.660	1234.71411	-1568.79529	1180.61560	
6268	62.670	1239.08936	-1565.33716	1180.31873	
6269	62.680	1242.51733	-1563.06958	1180.43225	
6270	62.690	1245.56250	-1560.12292	1179.52393	
6271	62.700	1247.46973	-1558.06555	1178.88403	
6272	62.710	1254.52539	-1554.21887	1180.28479	
6273	62.720	1259.58008	-1550.39978	1181.49548	
6274	62.730	1261.77234	-1547.47949	1180.51038	
6275	62.740	1261.61816	-1544.42163	1180.21130	
6276	62.750	1265.96375	-1542.11145	1179.90247	
6277	62.760	1268.83594	-1539.58154	1179.72510	
6278	62.770	1271.96143	-1536.92175	1179.83606	
6279	62.780	1274.68323	-1534.62634	1179.31238	
6280	62.790	1277.37354	-1532.01184	1179.11047	
6281	62.800	1278.74231	-1529.79309	1178.70947	
6282	62.810	1282.26343	-1527.19861	1178.60107	
6283	62.820	1282.89087	-1525.05396	1178.17871	
6284	62.830	1284.86328	-1522.49207	1177.93201	
6285	62.840	1287.19470	-1520.04565	1177.61841	
6286	62.850	1291.35071	-1517.11353	1177.74622	
6287	62.860	1292.15137	-1514.62024	1177.51208	
6288	62.870	1294.03796	-1511.74890	1177.12622	
6289	62.880	1296.81299	-1509.13855	1176.79773	
6290	62.890	1298.66821	-1506.51746	1177.00427	
6291	62.900	1300.80518	-1504.06628	1176.79456	
6292	62.910	1302.53503	-1501.18115	1176.59192	
6293	62.920	1303.73975	-1499.12695	1176.32849	
6294	62.930	1308.14331	-1495.87317	1176.22766	
6295	62.940	1309.74719	-1493.51794	1176.55054	
6296	62.950	1311.46155	-1490.90149	1176.58691	
6297	62.960	1313.46838	-1488.64734	1176.53955	
6298	62.970	1314.87952	-1486.23352	1177.01746	
6299	62.980	1314.25623	-1484.25049	1176.80786	
6300	62.990	1316.56885	-1482.04248	1177.20276	
6301	63.000	1318.68726	-1479.63464	1177.58398	
6302	63.010	1320.31030	-1477.72559	1177.96289	
6303	63.020	1322.20703	-1474.97339	1178.14502	
6304	63.030	1323.83911	-1473.20789	1178.68689	
6305	63.040	1325.23401	-1470.98376	1179.14063	
6306	63.050	1326.24841	-1468.62061	1179.41248	
6307	63.060	1328.07935	-1466.36230	1179.95557	
6308	63.070	1328.91858	-1464.02881	1180.18298	
6309	63.080	1330.89319	-1461.56921	1180.28125	
6310	63.090	1331.92065	-1459.43542	1180.54260	
6311	63.100	1332.59985	-1456.72705	1180.79272	
6312	63.110	1335.32617	-1454.88623	1181.11523	
6313	63.120	1334.82178	-1452.20947	1181.57214	
6314	63.130	1335.42053	-1450.52661	1181.84424	
6315	63.140	1336.39038	-1448.57996	1182.26660	
6316	63.150	1339.98438	-1445.67627	1182.81580	
6317	63.160	1341.26563	-1443.37952	1183.54065	
6318	63.170	1342.13647	-1440.67285	1183.78198	
6319	63.180	1342.81824	-1438.71960	1184.51819	
6320	63.190	1344.07532	-1436.92603	1185.51880	
6321	63.200	1345.69910	-1434.10144	1186.42957	
6322	63.210	1341.04053	-1436.01501	1183.93335	
6323	63.220	1342.24646	-1433.25708	1184.95764	
6324	63.230	1342.82703	-1431.74243	1185.37256	
6325	63.240	1343.96179	-1429.53796	1186.01599	
6326	63.250	1344.59705	-1426.96289	1186.21509	
6327	63.260	1345.15112	-1425.21777	1186.89124	
6328	63.270	1345.22314	-1422.44629	1187.00464	
6329	63.280	1346.48511	-1420.32068	1188.23608	
6330	63.290	1346.68872	-1418.19470	1188.43896	
6331	63.300	1347.04871	-1415.70947	1188.94385	
6332	63.310	1347.47388	-1413.91370	1188.97351	
6333	63.320	1348.23474	-1410.83093	1189.01526	
6334	63.330	1348.71008	-1408.43176	1189.28931	
6335	63.340	1348.52930	-1405.82886	1189.08276	
6336	63.350	1348.90918	-1403.54309	1189.38684	
6337	63.360	1349.72461	-1399.87183	1189.67993	
6338	63.370	1349.56445	-1396.87415	1189.32043	
6339	63.380	1349.36218	-1395.00281	1189.34192	
6340	63.390	1349.87256	-1391.96606	1189.50537	
6341	63.400	1354.16675	-1388.45801	1191.00854	
6342	63.410	1354.07434	-1385.63562	1190.33081	
6343	63.420	1354.40308	-1382.01465	1190.18799	
6344	63.430	1355.43018	-1378.92334	1190.49316	
6345	63.440	1355.72144	-1375.43982	1189.98975	
6346	63.450	1356.24207	-1372.16541	1190.05750	
6347	63.460	1357.19922	-1369.12378	1189.89587	
6348	63.470	1356.94836	-1365.72546	1189.39807	
6349	63.480	1353.93896	-1363.25647	1188.17126	
6350	63.490	1355.47339	-1359.92505	1188.49463	
6351	63.500	1355.69812	-1356.66296	1188.19482	
6352	63.510	1356.46875	-1353.05627	1188.01721	
6353	63.520	1356.74951	-1349.94495	1187.74487	
6354	63.530	1357.68579	-1346.38770	1187.58936	
6355	63.540	1359.09607	-1342.82751	1187.97278	
6356	63.550	1360.22009	-1339.51318	1188.14111	
6357	63.560	1360.86279	-1336.16333	1187.93042	
6358	63.570	1360.85144	-1332.91138	1187.52832	
6359	63.580	1361.73474	-1329.80017	1187.44910	
6360	63.590	1361.76331	-1326.74609	1187.55505	
6361	63.600	1361.10413	-1324.76660	1186.72937	
6362	63.610	1361.21826	-1321.77197	1186.96204	
6363	63.620	1362.76538	-1317.97083	1187.25757	
6364	63.630	1363.16174	-1315.18372	1187.44458	
6365	63.640	1363.28455	-1312.24304	1187.63391	
6366	63.650	1364.18604	-1308.53259	1188.29810	
